<?xml version="1.0" encoding="UTF-8"?>
<svg xmlns="http://www.w3.org/2000/svg" width="512" height="512" viewBox="0 0 512 512">
  <rect width="512" height="512" fill="#FAF6F1"/>
  <path d="M156.50 198.62L159.38 198.62Q158.63 200.62 157.88 203.25Q157.13 205.87 156.25 208.87L156.25 208.87Q155.63 211.25 154.63 215.68Q153.63 220.12 152.88 224.87L152.88 224.87Q146.50 224.62 138.50 224.56Q130.50 224.50 124.25 224.50L124.25 224.50Q121.50 224.50 117.19 224.50Q112.88 224.50 107.88 224.56Q102.88 224.62 97.75 224.68Q92.63 224.75 88.13 224.87L88.13 224.87L88.75 222.37Q93 222.12 95.38 221.37Q97.75 220.62 99.06 218.37Q100.38 216.12 101.63 211.62L101.63 211.62L118.25 149.62Q119.50 145.00 119.31 142.81Q119.13 140.62 117.19 139.81Q115.25 139.00 111 138.87L111 138.87L111.63 136.37Q114.25 136.50 118.50 136.62Q122.75 136.75 127.63 136.75L127.63 136.75Q132 136.75 136.31 136.62Q140.63 136.50 143.50 136.37L143.50 136.37L142.88 138.87Q138.63 139.00 136.25 139.81Q133.88 140.62 132.50 142.81Q131.13 145.00 129.88 149.62L129.88 149.62L113.25 211.62Q112 216.12 112.19 218.37Q112.38 220.62 114.38 221.31Q116.38 222.00 120.63 222.00L120.63 222.00L129.75 222.00Q137.63 222.00 142.31 219.75Q147 217.50 150.19 212.37Q153.38 207.25 156.50 198.62L156.50 198.62Z" fill="#352318"/>
  <path d="M189.38 137.87L189.38 137.87Q190 134.62 192.69 132.25Q195.38 129.87 198.50 129.87L198.50 129.87Q201.75 129.87 203.56 132.25Q205.38 134.62 204.75 137.87L204.75 137.87Q204.13 141.12 201.44 143.50Q198.75 145.87 195.50 145.87L195.50 145.87Q192.38 145.87 190.56 143.50Q188.75 141.12 189.38 137.87ZM172.13 209.12L185.50 171.25Q188.13 163.50 183.75 163.50L183.75 163.50Q180.88 163.50 178.63 166.62Q176.38 169.75 173.88 176.25L173.88 176.25L172.13 180.87L169.75 180.87L173 171.75Q174.88 166.50 177.50 163.75Q180.13 161.00 183.06 159.93Q186 158.87 188.50 158.87L188.50 158.87Q192.50 158.87 194.38 160.50Q196.25 162.12 196.63 164.75Q197 167.37 196.38 170.43Q195.75 173.50 194.75 176.37L194.75 176.37L181.38 214.25Q180.13 217.87 180.56 219.93Q181 222.00 183.38 222.00L183.38 222.00Q185.88 222.00 188.13 219.25Q190.38 216.50 193.13 209.25L193.13 209.25L194.88 204.62L197.25 204.62L194 213.75Q192.25 218.62 189.75 221.43Q187.25 224.25 184.38 225.43Q181.50 226.62 178.63 226.62L178.63 226.62Q173.25 226.62 171.38 224.12Q169.50 221.62 170 217.62Q170.50 213.62 172.13 209.12L172.13 209.12Z" fill="#352318"/>
  <path d="M231 176.37L218.75 224.87L207.88 224.87L222.88 171.25Q223.38 169.75 223.69 167.93Q224 166.12 223.50 164.81Q223 163.50 221 163.50L221 163.50Q218.25 163.50 216.13 166.18Q214 168.87 211.38 176.25L211.38 176.25L209.75 180.87L207.38 180.87L210.50 171.75Q213.25 163.87 217.31 161.37Q221.38 158.87 225.38 158.87L225.38 158.87Q229.13 158.87 230.81 160.50Q232.50 162.12 232.69 164.68Q232.88 167.25 232.31 170.31Q231.75 173.37 231 176.37L231 176.37ZM220.88 216.37L224.50 198.87Q228.88 187.62 233 180.00Q237.13 172.37 241.13 167.68Q245.13 163.00 249.31 160.93Q253.50 158.87 258 158.87L258 158.87Q263.88 158.87 266.06 161.68Q268.25 164.50 268 168.81Q267.75 173.12 266.25 177.75L266.25 177.75L254.13 214.25Q253 217.62 253.19 219.81Q253.38 222.00 256.13 222.00L256.13 222.00Q258.50 222.00 260.81 219.37Q263.13 216.75 265.75 209.25L265.75 209.25L267.38 204.62L269.75 204.62L266.63 213.75Q264.88 219.00 262.31 221.75Q259.75 224.50 256.94 225.56Q254.13 226.62 251.50 226.62L251.50 226.62Q248.50 226.62 246.56 225.62Q244.63 224.62 243.63 223.00L243.63 223.00Q242.25 220.75 242.75 217.12Q243.25 213.50 244.75 209.12L244.75 209.12L256.63 173.37Q257.25 171.62 257.69 169.18Q258.13 166.75 257.50 164.81Q256.88 162.87 253.88 162.87L253.88 162.87Q250.88 162.87 247.50 165.50Q244.13 168.12 240.50 172.93Q236.88 177.75 233.38 184.43Q229.88 191.12 226.69 199.18Q223.50 207.25 220.88 216.37L220.88 216.37Z" fill="#352318"/>
  <path d="M303.50 176.37L291.25 224.87L280.38 224.87L295.38 171.25Q295.88 169.75 296.19 167.93Q296.50 166.12 296 164.81Q295.50 163.50 293.50 163.50L293.50 163.50Q290.75 163.50 288.63 166.18Q286.50 168.87 283.88 176.25L283.88 176.25L282.25 180.87L279.88 180.87L283 171.75Q285.75 163.87 289.81 161.37Q293.88 158.87 297.88 158.87L297.88 158.87Q301.63 158.87 303.31 160.50Q305 162.12 305.19 164.68Q305.38 167.25 304.81 170.31Q304.25 173.37 303.50 176.37L303.50 176.37ZM293.38 216.37L297 198.87Q301.38 187.62 305.50 180.00Q309.63 172.37 313.63 167.68Q317.63 163.00 321.81 160.93Q326 158.87 330.50 158.87L330.50 158.87Q336.38 158.87 338.56 161.68Q340.75 164.50 340.50 168.81Q340.25 173.12 338.75 177.75L338.75 177.75L326.63 214.25Q325.50 217.62 325.69 219.81Q325.88 222.00 328.63 222.00L328.63 222.00Q331 222.00 333.31 219.37Q335.63 216.75 338.25 209.25L338.25 209.25L339.88 204.62L342.25 204.62L339.13 213.75Q337.38 219.00 334.81 221.75Q332.25 224.50 329.44 225.56Q326.63 226.62 324 226.62L324 226.62Q321 226.62 319.06 225.62Q317.13 224.62 316.13 223.00L316.13 223.00Q314.75 220.75 315.25 217.12Q315.75 213.50 317.25 209.12L317.25 209.12L329.13 173.37Q329.75 171.62 330.19 169.18Q330.63 166.75 330 164.81Q329.38 162.87 326.38 162.87L326.38 162.87Q323.38 162.87 320 165.50Q316.63 168.12 313 172.93Q309.38 177.75 305.88 184.43Q302.38 191.12 299.19 199.18Q296 207.25 293.38 216.37L293.38 216.37Z" fill="#352318"/>
  <path d="M377.63 137.75L377.63 137.75Q377.63 140.50 376.19 143.43Q374.75 146.37 372.50 150.31Q370.25 154.25 367.75 160.12L367.75 160.12L366 160.12Q366.88 154.00 367.13 150.31Q367.38 146.62 367.63 144.06Q367.88 141.50 368.50 138.87L368.50 138.87Q369.13 136.00 370.63 134.81Q372.13 133.62 373.75 133.62L373.75 133.62Q375.88 133.62 376.75 134.81Q377.63 136.00 377.63 137.75Z" fill="#352318"/>
  <path d="M379.25 223.00L379.25 223.00Q380.25 223.50 381.44 223.81Q382.63 224.12 385 224.12L385 224.12Q390.50 224.12 394.06 220.81Q397.63 217.50 397.63 211.25L397.63 211.25Q397.63 207.37 396.19 203.56Q394.75 199.75 391.13 194.75L391.13 194.75Q388.25 190.75 385.63 186.56Q383 182.37 383 176.62L383 176.62Q383 171.25 385.63 167.31Q388.25 163.37 392.69 161.12Q397.13 158.87 402.38 158.87L402.38 158.87Q406 158.87 409.50 159.75Q413 160.62 415.31 162.93Q417.63 165.25 417.63 169.75L417.63 169.75Q417.63 170.87 417.06 172.43Q416.50 174.00 415.25 175.12Q414 176.25 411.88 176.25L411.88 176.25Q409.88 176.25 408.38 174.81Q406.88 173.37 406.88 171.00L406.88 171.00Q406.88 168.75 407.81 166.68Q408.75 164.62 410.38 162.62L410.38 162.62Q408 161.12 404.13 161.12L404.13 161.12Q399.50 161.12 396.38 164.25Q393.25 167.37 393.25 173.00L393.25 173.00Q393.25 175.87 394.13 178.06Q395 180.25 396.69 182.62Q398.38 185.00 400.75 188.62L400.75 188.62Q403.88 193.37 406 197.75Q408.13 202.12 408.13 207.00L408.13 207.00Q408.13 212.75 405.19 217.18Q402.25 221.62 397.38 224.12Q392.50 226.62 386.63 226.62L386.63 226.62Q382.38 226.62 378.50 225.37Q374.63 224.12 372.19 221.43Q369.75 218.75 369.75 214.25L369.75 214.25Q369.75 212.50 370.81 210.56Q371.88 208.62 374.63 208.62L374.63 208.62Q377.63 208.62 378.88 211.06Q380.13 213.50 380.13 216.50L380.13 216.50Q380.13 218.50 379.81 220.06Q379.50 221.62 379.25 223.00Z" fill="#352318"/>
  <g transform="translate(-89.60000000000002, 302.6944) scale(1.28)">
    <path d="M 110 70 C 110 30, 200 30, 270 70 C 340 110, 430 110, 430 70 C 430 30, 340 30, 270 70 C 200 110, 110 110, 110 70 Z"
          fill="none"
          stroke="#B87B6E"
          stroke-width="2.048"
          stroke-linejoin="round"
          stroke-linecap="round"/>
  </g>
</svg>