<?xml version="1.0" encoding="UTF-8"?>
<svg xmlns="http://www.w3.org/2000/svg" width="512" height="512" viewBox="0 0 512 512">
  <rect width="512" height="512" fill="#FAF6F1"/>
  <path d="M138.19 186.01L141.60 186.01Q140.71 188.38 139.82 191.48Q138.93 194.59 137.90 198.14Q137.16 200.96 135.97 206.21Q134.79 211.46 133.90 217.09Q126.35 216.79 116.88 216.72Q107.41 216.64 100.01 216.64Q96.75 216.64 91.65 216.64Q86.54 216.64 80.62 216.72Q74.70 216.79 68.63 216.87Q62.56 216.94 57.24 217.09L57.98 214.13Q63.01 213.83 65.82 212.94Q68.63 212.06 70.19 209.39Q71.74 206.73 73.22 201.40L92.90 127.99Q94.38 122.52 94.16 119.93Q93.94 117.34 91.65 116.37Q89.35 115.41 84.32 115.26L85.06 112.30Q88.17 112.45 93.20 112.60Q98.23 112.75 104 112.75Q109.18 112.75 114.29 112.60Q119.40 112.45 122.80 112.30L122.06 115.26Q117.03 115.41 114.22 116.37Q111.40 117.34 109.78 119.93Q108.15 122.52 106.67 127.99L86.98 201.40Q85.50 206.73 85.73 209.39Q85.95 212.06 88.32 212.87Q90.68 213.68 95.72 213.68L106.52 213.68Q115.84 213.68 121.39 211.02Q126.94 208.36 130.72 202.29Q134.49 196.22 138.19 186.01 M177.12 114.08Q177.86 110.23 181.04 107.42Q184.22 104.61 187.92 104.61Q191.77 104.61 193.91 107.42Q196.06 110.23 195.32 114.08Q194.58 117.93 191.40 120.74Q188.22 123.55 184.37 123.55Q180.67 123.55 178.52 120.74Q176.38 117.93 177.12 114.08M156.69 198.44L172.53 153.60Q175.64 144.42 170.46 144.42Q167.05 144.42 164.39 148.12Q161.72 151.82 158.76 159.52L156.69 164.99L153.88 164.99L157.73 154.19Q159.95 147.97 163.06 144.72Q166.16 141.46 169.64 140.20Q173.12 138.94 176.08 138.94Q180.82 138.94 183.04 140.87Q185.26 142.79 185.70 145.90Q186.14 149.01 185.40 152.63Q184.66 156.26 183.48 159.66L167.64 204.51Q166.16 208.80 166.68 211.24Q167.20 213.68 170.01 213.68Q172.97 213.68 175.64 210.43Q178.30 207.17 181.56 198.59L183.63 193.11L186.44 193.11L182.59 203.92Q180.52 209.69 177.56 213.02Q174.60 216.35 171.20 217.75Q167.79 219.16 164.39 219.16Q158.02 219.16 155.80 216.20Q153.58 213.24 154.18 208.50Q154.77 203.77 156.69 198.44 M226.40 159.66L211.90 217.09L199.02 217.09L216.78 153.60Q217.37 151.82 217.74 149.67Q218.11 147.53 217.52 145.97Q216.93 144.42 214.56 144.42Q211.30 144.42 208.79 147.60Q206.27 150.78 203.16 159.52L201.24 164.99L198.43 164.99L202.13 154.19Q205.38 144.86 210.19 141.90Q215 138.94 219.74 138.94Q224.18 138.94 226.18 140.87Q228.18 142.79 228.40 145.83Q228.62 148.86 227.95 152.49Q227.29 156.11 226.40 159.66M214.41 207.02L218.70 186.30Q223.88 172.98 228.77 163.96Q233.65 154.93 238.39 149.38Q243.12 143.83 248.08 141.39Q253.04 138.94 258.37 138.94Q265.32 138.94 267.91 142.27Q270.50 145.60 270.21 150.71Q269.91 155.82 268.14 161.29L253.78 204.51Q252.45 208.50 252.67 211.09Q252.89 213.68 256.15 213.68Q258.96 213.68 261.70 210.58Q264.44 207.47 267.54 198.59L269.47 193.11L272.28 193.11L268.58 203.92Q266.51 210.13 263.47 213.39Q260.44 216.64 257.11 217.90Q253.78 219.16 250.67 219.16Q247.12 219.16 244.83 217.98Q242.53 216.79 241.35 214.87Q239.72 212.20 240.31 207.91Q240.90 203.62 242.68 198.44L256.74 156.11Q257.48 154.04 258 151.15Q258.52 148.27 257.78 145.97Q257.04 143.68 253.48 143.68Q249.93 143.68 245.94 146.79Q241.94 149.90 237.65 155.59Q233.36 161.29 229.21 169.21Q225.07 177.13 221.29 186.67Q217.52 196.22 214.41 207.02 M312.24 159.66L297.74 217.09L284.86 217.09L302.62 153.60Q303.21 151.82 303.58 149.67Q303.95 147.53 303.36 145.97Q302.77 144.42 300.40 144.42Q297.14 144.42 294.63 147.60Q292.11 150.78 289 159.52L287.08 164.99L284.27 164.99L287.97 154.19Q291.22 144.86 296.03 141.90Q300.84 138.94 305.58 138.94Q310.02 138.94 312.02 140.87Q314.02 142.79 314.24 145.83Q314.46 148.86 313.79 152.49Q313.13 156.11 312.24 159.66M300.25 207.02L304.54 186.30Q309.72 172.98 314.61 163.96Q319.49 154.93 324.23 149.38Q328.96 143.83 333.92 141.39Q338.88 138.94 344.21 138.94Q351.16 138.94 353.75 142.27Q356.34 145.60 356.05 150.71Q355.75 155.82 353.98 161.29L339.62 204.51Q338.29 208.50 338.51 211.09Q338.73 213.68 341.99 213.68Q344.80 213.68 347.54 210.58Q350.28 207.47 353.38 198.59L355.31 193.11L358.12 193.11L354.42 203.92Q352.35 210.13 349.31 213.39Q346.28 216.64 342.95 217.90Q339.62 219.16 336.51 219.16Q332.96 219.16 330.67 217.98Q328.37 216.79 327.19 214.87Q325.56 212.20 326.15 207.91Q326.74 203.62 328.52 198.44L342.58 156.11Q343.32 154.04 343.84 151.15Q344.36 148.27 343.62 145.97Q342.88 143.68 339.32 143.68Q335.77 143.68 331.78 146.79Q327.78 149.90 323.49 155.59Q319.20 161.29 315.05 169.21Q310.91 177.13 307.13 186.67Q303.36 196.22 300.25 207.02 M400 113.93Q400 117.19 398.30 120.67Q396.60 124.14 393.94 128.81Q391.27 133.47 388.31 140.42L386.24 140.42Q387.28 133.17 387.57 128.81Q387.87 124.44 388.16 121.41Q388.46 118.37 389.20 115.26Q389.94 111.86 391.72 110.45Q393.49 109.05 395.42 109.05Q397.93 109.05 398.97 110.45Q400 111.86 400 113.93 M401.93 214.87Q403.11 215.46 404.52 215.83Q405.92 216.20 408.74 216.20Q415.25 216.20 419.47 212.28Q423.68 208.36 423.68 200.96Q423.68 196.37 421.98 191.85Q420.28 187.34 415.99 181.42Q412.58 176.68 409.48 171.73Q406.37 166.77 406.37 159.96Q406.37 153.60 409.48 148.93Q412.58 144.27 417.84 141.61Q423.09 138.94 429.31 138.94Q433.60 138.94 437.74 139.98Q441.89 141.02 444.63 143.75Q447.36 146.49 447.36 151.82Q447.36 153.15 446.70 155Q446.03 156.85 444.55 158.18Q443.07 159.52 440.56 159.52Q438.19 159.52 436.41 157.81Q434.64 156.11 434.64 153.30Q434.64 150.64 435.75 148.19Q436.86 145.75 438.78 143.38Q435.97 141.61 431.38 141.61Q425.90 141.61 422.20 145.31Q418.50 149.01 418.50 155.67Q418.50 159.07 419.54 161.66Q420.58 164.25 422.57 167.06Q424.57 169.88 427.38 174.17Q431.08 179.79 433.60 184.97Q436.12 190.15 436.12 195.92Q436.12 202.73 432.64 207.99Q429.16 213.24 423.39 216.20Q417.62 219.16 410.66 219.16Q405.63 219.16 401.04 217.68Q396.45 216.20 393.57 213.02Q390.68 209.84 390.68 204.51Q390.68 202.44 391.94 200.14Q393.20 197.85 396.45 197.85Q400 197.85 401.48 200.73Q402.96 203.62 402.96 207.17Q402.96 209.54 402.59 211.39Q402.22 213.24 401.93 214.87" fill="#352318"/>
  <g transform="translate(108.1344, 275.456) scale(0.5476503703703703)">
    <path d="M 110 70 C 110 30, 200 30, 270 70 C 340 110, 430 110, 430 70 C 430 30, 340 30, 270 70 C 200 110, 110 110, 110 70 Z"
          fill="none"
          stroke="#B87B6E"
          stroke-width="4.674515235457064"
          stroke-linejoin="round"
          stroke-linecap="round"/>
  </g>
</svg>